<svg xmlns="http://www.w3.org/2000/svg" viewBox="0 0 512 512">
  <defs>
    <linearGradient id="g" x1="0" y1="0" x2="1" y2="1">
      <stop offset="0" stop-color="#4f7cff"/>
      <stop offset="1" stop-color="#7e4dff"/>
    </linearGradient>
  </defs>
  <rect width="512" height="512" rx="112" fill="url(#g)"/>
  <path fill="#ffffff" d="M256 96a96 96 0 0 0-96 96v48h-24a40 40 0 0 0-40 40v144a40 40 0 0 0 40 40h240a40 40 0 0 0 40-40V280a40 40 0 0 0-40-40h-24v-48a96 96 0 0 0-96-96Zm-64 144v-48a64 64 0 1 1 128 0v48H192Zm64 64a32 32 0 0 1 16 60v36a16 16 0 0 1-32 0v-36a32 32 0 0 1 16-60Z"/>
</svg>
